<mxfile host="app.diagrams.net" modified="2023-11-16T06:08:34.217Z" agent="Mozilla/5.0 (Windows NT 10.0; Win64; x64) AppleWebKit/537.36 (KHTML, like Gecko) Chrome/116.0.0.0 Safari/537.36" version="22.1.2" etag="g1OyfzOCrNaAuQ9l9xw2" type="github">
  <diagram name="第 1 页" id="koC9HaDYMUgK84STHC2b">
    <mxGraphModel>
      <root>
        <mxCell id="0" />
        <mxCell id="1" parent="0" />
      </root>
    </mxGraphModel>
  </diagram>
</mxfile>
